<svg style="display:none">
  <defs>
    <g id="yinyang">
      <path
        d="M199.386,389.998C147.237,389.668 105,347.227 105,295C105,242.773 147.237,200.332 199.386,200.002L200.614,199.998C252.763,199.668 295,157.227 295,105C295,52.773 252.763,10.332 200.614,10.002L200,10C304.864,10 390,95.136 390,200C390,304.864 304.864,390 200,390L199.386,389.998Z"
        style="fill:var(--yin);stroke:rgb(128,128,128);stroke-width:7.88px;"/>
      <circle cx="200" cy="295" r="28.589" style="fill:var(--yindot);"/>
      <path
        d="M200.614,10.002C252.763,10.332 295,52.773 295,105C295,157.227 252.763,199.668 200.614,199.998L199.386,200.002C147.237,200.332 105,242.773 105,295C105,347.227 147.237,389.668 199.386,389.998L200,390C95.136,390 10,304.864 10,200C10,95.136 95.136,10 200,10L200.614,10.002Z"
        style="fill:var(--yang);stroke:rgb(128,128,128);stroke-width:7.88px;"/>
      <circle cx="200" cy="105" r="28.589" style="fill:var(--yangdot);"/>
    </g>
    <g id="hand" viewBox="0 0 511 511">
      <path
        d="M49.904,175.658C44.395,175.658 39.923,180.13 39.923,185.639C39.923,191.147 44.395,195.619 49.904,195.619C55.412,195.619 59.884,191.147 59.884,185.639C59.884,180.13 55.412,175.658 49.904,175.658Z"
        style="fill-rule:nonzero;"/>
      <path
        d="M458.722,210.266L364.632,242.613C365.049,240.297 365.283,237.935 365.283,235.537C365.283,213.525 347.377,195.615 325.361,195.615L260.73,195.615C259.014,195.615 257.322,195.175 255.829,194.332L203.1,164.676C192.675,158.8 180.827,155.693 168.839,155.693L98.087,155.693C93.97,144.079 82.874,135.736 69.865,135.736L9.982,135.736C4.469,135.736 0.001,140.204 0.001,145.717L0.001,325.361C0.001,330.874 4.469,335.342 9.982,335.342L69.865,335.342C82.578,335.342 93.479,327.354 97.806,316.133C109.104,317.537 122.176,320.878 130.391,325.806L182.586,357.124C202.359,368.991 224.999,375.264 248.063,375.264C266.34,375.264 284.047,371.428 300.698,363.864L486.979,281.841C507.61,273.471 517.797,248.718 506.004,226.902C497.33,210.847 477.014,203.705 458.722,210.266ZM79.845,305.447C79.822,310.929 75.35,315.381 69.865,315.381L19.962,315.381L19.962,155.697L69.865,155.697C75.366,155.697 79.845,160.173 79.845,165.678L79.845,305.447ZM479.396,263.381C479.291,263.42 479.185,263.467 479.08,263.51C479.08,263.51 292.523,345.654 292.488,345.669C278.433,352.063 263.486,355.303 248.063,355.303C228.617,355.303 209.529,350.016 192.859,340.009L140.66,308.691C129.486,301.989 113.486,297.903 99.806,296.266L99.806,175.658L168.839,175.658C177.4,175.658 185.86,177.872 193.311,182.071L246.04,211.728C250.508,214.247 255.591,215.58 260.73,215.58L325.361,215.58C336.367,215.58 345.322,224.531 345.322,235.541C345.322,246.508 336.363,255.502 325.361,255.502L223.903,255.502C218.391,255.502 213.923,259.97 213.923,265.482C213.923,270.991 218.391,275.459 223.903,275.459L325.361,275.459C331.907,275.459 338.351,273.833 344.071,270.785C344.071,270.785 465.376,229.085 465.423,229.069C474.367,225.841 484.48,229.054 488.445,236.391C494.39,247.389 489.474,259.346 479.396,263.381Z"
        style="fill-rule:nonzero;"/>
    </g>
    <g id="fist" viewBox="0 0 512 512">
      <path
        d="M402.523,24.055C388.867,24.055 376.5,29.676 367.598,38.719C362.848,16.617 343.164,0 319.668,0C302.254,0 286.938,9.133 278.238,22.855C269.535,9.133 254.223,0 236.809,0C214.449,0 195.551,15.051 189.676,35.551C180.727,26.02 168.023,20.047 153.949,20.047C126.914,20.047 104.918,42.043 104.918,69.082L104.918,119.008C87.363,122.625 72.871,136.559 69.352,155.008L66.359,170.676C62.805,189.328 61,208.406 61,227.387C61,259.543 86.305,310.583 105.821,336.138C107.317,338.099 109.579,339.13 111.868,339.13C113.477,339.13 115.098,338.622 116.477,337.567C119.817,335.02 120.454,330.247 117.907,326.911C100.407,303.989 76.207,256.227 76.207,227.387C76.207,209.359 77.922,191.238 81.297,173.527L84.289,157.855C87.238,142.391 101.762,131.684 117.344,133.477C153.449,137.633 190.07,137.676 226.188,133.602C242.398,131.777 257.484,142.895 260.539,158.922L260.688,159.695C262.344,168.379 260.367,177.078 255.125,184.195C249.863,191.336 242.105,195.816 233.277,196.813C214.035,198.98 194.488,200.129 175.094,200.227L170.23,200.227C167.383,200.227 164.777,201.82 163.473,204.355C162.172,206.887 162.391,209.938 164.047,212.254C165.469,214.246 167.762,215.43 170.207,215.441C171.848,215.445 173.484,215.445 175.129,215.438L184.277,215.438C189.555,215.438 194.82,215.93 199.93,216.906C213.324,219.445 226.035,225.359 236.691,234.008C256.305,249.898 267.555,273.48 267.555,298.715C267.555,302.914 270.957,306.32 275.156,306.32C279.355,306.32 282.762,302.914 282.762,298.715C282.762,268.871 269.457,240.98 246.27,222.195C241.656,218.453 236.719,215.141 231.531,212.301C232.684,212.18 233.832,212.055 234.98,211.922C247.875,210.469 259.68,203.652 267.367,193.215C271.41,187.73 274.145,181.445 275.484,174.875C283.203,190.531 299.328,201.332 317.93,201.332L321.402,201.332C340.828,201.332 357.551,189.555 364.824,172.766C373.504,182.934 386.402,189.398 400.789,189.398L404.262,189.398C416.637,189.398 427.91,184.613 436.352,176.805L436.385,231.033C436.385,235.232 439.787,238.638 443.986,238.638C448.185,238.638 451.592,235.232 451.592,231.033L451.559,73.09C451.559,46.051 429.563,24.055 402.523,24.055ZM120.125,118.48L120.125,69.082C120.125,50.43 135.297,35.258 153.949,35.258C172.602,35.258 187.773,50.43 187.773,69.082L187.773,121.148C165.199,121.898 142.563,121.012 120.125,118.48ZM224.484,118.488C217.336,119.297 210.164,119.926 202.984,120.398L202.984,49.035C202.984,30.383 218.156,15.207 236.809,15.207C255.461,15.207 270.633,30.383 270.633,49.035L270.633,142.594C261.77,126.383 243.66,116.32 224.484,118.488ZM353.492,154.035C353.492,171.727 339.098,186.125 321.402,186.125L317.934,186.125C300.238,186.125 285.844,171.727 285.844,154.035L285.844,49.035C285.844,30.383 301.016,15.207 319.668,15.207C338.32,15.207 353.492,30.383 353.492,49.035L353.492,154.035ZM404.262,174.191L400.789,174.191C383.098,174.191 368.699,159.793 368.699,142.102L368.699,73.09C368.699,54.438 383.875,39.266 402.527,39.266C421.176,39.266 436.352,54.438 436.352,73.09L436.352,142.102C436.352,159.793 421.957,174.191 404.262,174.191Z"
        style="fill-rule:nonzero;"/>
      <path
        d="M118.723,327.793C116.176,324.457 111.402,323.816 108.066,326.363C104.727,328.914 104.09,333.684 106.637,337.023L115.512,348.648C139.398,379.938 152.555,418.848 152.555,458.215L152.555,504.395C152.555,508.594 155.961,512 160.16,512C164.359,512 167.762,508.594 167.762,504.395L167.762,458.215C167.762,415.531 153.5,373.344 127.598,339.418L118.723,327.793Z"
        style="fill-rule:nonzero;"/>
      <path
        d="M443.957,225.352C439.758,225.352 436.352,228.754 436.352,232.953L436.352,242.234C436.352,272.867 430.449,302.77 418.809,331.105C407.164,359.441 390.34,384.855 368.805,406.637C360.656,414.883 356.168,425.805 356.168,437.398L356.168,504.395C356.168,508.594 359.57,512 363.77,512C367.969,512 371.375,508.594 371.375,504.395L371.375,437.398C371.375,429.836 374.301,422.707 379.617,417.332C402.559,394.129 420.477,367.062 432.875,336.883C445.273,306.707 451.563,274.859 451.563,242.234L451.563,232.953C451.559,228.754 448.156,225.352 443.957,225.352Z"
        style="fill-rule:nonzero;"/>
    </g>
    <g id="dislike" viewBox="0 0 511 511">
      <path
        d="M464.062,171.329C469.917,173.773 475.298,177.364 479.921,181.988C489.231,191.298 494.358,203.676 494.358,216.842C494.358,230.003 489.231,242.382 479.921,251.691C475.434,256.175 470.202,259.711 464.471,262.159C474.943,271.204 481.578,284.573 481.578,299.458C481.578,312.627 476.448,325.005 467.145,334.296C457.839,343.614 445.461,348.744 432.315,348.744L377.278,348.861L377.262,348.861C373.075,348.861 369.679,345.477 369.672,341.29C369.664,337.099 373.052,333.695 377.243,333.684L432.296,333.567C441.403,333.567 449.964,330.015 456.409,323.563C462.849,317.134 466.397,308.573 466.397,299.458C466.397,280.662 451.11,265.368 432.323,265.36C428.132,265.356 424.736,261.96 424.74,257.769C424.74,253.578 428.136,250.179 432.327,250.179L452.276,250.179C458.682,248.806 464.518,245.629 469.184,240.959C475.629,234.518 479.177,225.953 479.177,216.842C479.177,207.727 475.629,199.161 469.184,192.721C462.744,186.276 454.179,182.728 445.067,182.728L432.522,182.728C428.327,182.728 424.931,179.333 424.931,175.142C424.931,170.951 428.327,167.551 432.522,167.551C441.621,167.551 450.19,164.007 456.639,157.571C463.083,151.13 466.631,142.565 466.631,133.454C466.631,124.342 463.083,115.773 456.639,109.333C450.198,102.888 441.633,99.344 432.522,99.344C432.405,99.344 432.288,99.34 432.175,99.333L415.145,98.557C411.025,98.366 407.808,94.923 407.906,90.799C407.999,86.678 411.368,83.383 415.492,83.383C434.299,83.383 449.602,68.089 449.602,49.286C449.602,40.175 446.05,31.605 439.617,25.161C433.157,18.72 424.592,15.177 415.492,15.177L313.757,15.177C268.596,15.177 222.634,29.765 187.664,55.208C160.206,75.184 127.473,110.779 127.473,166.923L127.473,291.313C126.12,344.44 162.666,378.76 184.572,394.491C199.313,405.083 211.987,417.142 222.249,430.331C226.783,436.163 230.685,441.719 233.851,446.838C238.428,454.238 241.601,460.955 243.282,466.807C246.221,477.076 252.985,485.586 262.327,490.772C271.675,495.957 282.479,497.193 292.755,494.249C303.036,491.306 311.555,484.534 316.74,475.189C321.925,465.848 323.161,455.041 320.214,444.764C314.463,424.69 298.479,374.916 274.295,346.386C272.385,344.136 271.956,340.982 273.192,338.3C274.428,335.617 277.106,333.898 280.058,333.89L378.941,333.684L378.964,333.684C383.143,333.684 386.539,337.068 386.551,341.251C386.562,345.442 383.174,348.849 378.983,348.861L295.204,349.021C306.447,365.723 321.574,394.397 334.802,440.584C338.865,454.76 337.165,469.664 330.011,482.553C322.861,495.442 311.114,504.779 296.935,508.842C282.763,512.9 267.859,511.193 254.966,504.043C242.073,496.893 232.74,485.15 228.693,470.986C227.399,466.479 224.79,461.041 220.939,454.822C218.057,450.156 214.467,445.048 210.264,439.645C200.9,427.606 189.274,416.561 175.714,406.818C157.82,393.968 131.137,369.863 118.868,334.113L25.55,334.113C21.359,334.113 17.964,330.713 17.964,326.522L17.964,134.915C17.964,130.724 21.359,127.325 25.55,127.325C29.741,127.325 33.141,130.724 33.141,134.915L33.141,318.935L114.736,318.935C112.958,310.222 112.053,300.92 112.299,291.025L112.299,166.923C112.299,141.278 118.58,117.188 130.97,95.329C135.905,86.619 141.757,78.346 148.482,70.557L33.141,70.557L33.141,134.494C33.141,138.686 29.741,142.081 25.55,142.081C21.359,142.081 17.964,138.686 17.964,134.494L17.964,62.966C17.964,58.775 21.359,55.375 25.55,55.375L163.383,55.375C168.19,51.04 173.305,46.888 178.736,42.935C216.245,15.648 265.461,-0.001 313.761,-0.001L415.492,-0.001C428.639,-0.001 441.017,5.118 450.35,14.428C459.656,23.746 464.783,36.128 464.783,49.286C464.783,64.151 458.167,77.496 447.722,86.541C455.052,88.908 461.773,92.997 467.375,98.6C476.685,107.91 481.812,120.288 481.812,133.454C481.812,146.619 476.685,158.994 467.368,168.311C466.303,169.372 465.2,170.378 464.062,171.329Z"
        style="fill-rule:nonzero;"/>
    </g>
    <g id="like" viewBox="0 0 511 511">
      <path
        d="M464.062,339.669C469.917,337.225 475.298,333.634 479.921,329.01C489.231,319.7 494.358,307.322 494.358,294.156C494.358,280.994 489.231,268.616 479.921,259.306C475.434,254.823 470.202,251.287 464.471,248.838C474.943,239.794 481.578,226.425 481.578,211.54C481.578,198.371 476.448,185.992 467.145,176.702C457.839,167.384 445.461,162.254 432.315,162.254L377.278,162.137L377.262,162.137C373.075,162.137 369.679,165.521 369.672,169.708C369.664,173.899 373.052,177.302 377.243,177.314L432.296,177.431C441.403,177.431 449.964,180.983 456.409,187.435C462.849,193.864 466.397,202.425 466.397,211.54C466.397,230.336 451.11,245.63 432.323,245.638C428.132,245.642 424.736,249.037 424.74,253.228C424.74,257.419 428.136,260.819 432.327,260.819L452.276,260.819C458.682,262.191 464.518,265.369 469.184,270.039C475.629,276.48 479.177,285.045 479.177,294.156C479.177,303.271 475.629,311.837 469.184,318.277C462.744,324.722 454.179,328.269 445.067,328.269L432.522,328.269C428.327,328.269 424.931,331.665 424.931,335.856C424.931,340.047 428.327,343.447 432.522,343.447C441.621,343.447 450.19,346.991 456.639,353.427C463.083,359.868 466.631,368.433 466.631,377.544C466.631,386.655 463.083,395.225 456.639,401.665C450.198,408.11 441.633,411.653 432.522,411.653C432.405,411.653 432.288,411.657 432.175,411.665L415.145,412.441C411.025,412.632 407.808,416.075 407.906,420.199C407.999,424.32 411.368,427.615 415.492,427.615C434.299,427.615 449.602,442.909 449.602,461.712C449.602,470.823 446.05,479.392 439.617,485.837C433.157,492.277 424.592,495.821 415.492,495.821L313.757,495.821C268.596,495.821 222.634,481.232 187.664,455.79C160.206,435.813 127.473,400.219 127.473,344.074L127.473,219.684C126.12,166.558 162.666,132.238 184.572,116.507C199.313,105.914 211.987,93.856 222.249,80.667C226.783,74.834 230.685,69.279 233.851,64.16C238.428,56.76 241.601,50.043 243.282,44.191C246.221,33.922 252.985,25.411 262.327,20.226C271.675,15.041 282.479,13.805 292.755,16.749C303.036,19.692 311.555,26.464 316.74,35.809C321.925,45.15 323.161,55.957 320.214,66.234C314.463,86.308 298.479,136.082 274.295,164.612C272.385,166.862 271.956,170.016 273.192,172.698C274.428,175.38 277.106,177.1 280.058,177.107L378.941,177.314L378.964,177.314C383.143,177.314 386.539,173.93 386.551,169.747C386.562,165.556 383.174,162.148 378.983,162.137L295.204,161.977C306.447,145.275 321.574,116.601 334.802,70.413C338.865,56.238 337.165,41.333 330.011,28.444C322.861,15.556 311.114,6.218 296.935,2.156C282.763,-1.903 267.859,-0.195 254.966,6.955C242.073,14.105 232.74,25.848 228.693,40.012C227.399,44.519 224.79,49.957 220.939,56.175C218.057,60.842 214.467,65.949 210.264,71.353C200.9,83.392 189.274,94.437 175.714,104.179C157.82,117.029 131.137,141.135 118.868,176.885L25.55,176.885C21.359,176.885 17.964,180.285 17.964,184.476L17.964,376.083C17.964,380.274 21.359,383.673 25.55,383.673C29.741,383.673 33.141,380.274 33.141,376.083L33.141,192.063L114.736,192.063C112.958,200.776 112.053,210.078 112.299,219.973L112.299,344.074C112.299,369.72 118.58,393.809 130.97,415.669C135.905,424.379 141.757,432.652 148.482,440.441L33.141,440.441L33.141,376.503C33.141,372.312 29.741,368.917 25.55,368.917C21.359,368.917 17.964,372.312 17.964,376.503L17.964,448.032C17.964,452.223 21.359,455.622 25.55,455.622L163.383,455.622C168.19,459.958 173.305,464.11 178.736,468.063C216.245,495.349 265.461,510.999 313.761,510.999L415.492,510.999C428.639,510.999 441.017,505.88 450.35,496.57C459.656,487.252 464.783,474.87 464.783,461.712C464.783,446.846 458.167,433.501 447.722,424.457C455.052,422.09 461.773,418 467.375,412.398C476.685,403.088 481.812,390.71 481.812,377.544C481.812,364.379 476.685,352.004 467.368,342.687C466.303,341.626 465.2,340.62 464.062,339.669Z"
        style="fill-rule:nonzero;"/>
    </g>
  </defs>
</svg>