<svg style="display:none">
  <defs>
    <g id="yinyang">
      <path
        d="M199.386,389.998C147.237,389.668 105,347.227 105,295C105,242.773 147.237,200.332 199.386,200.002L200.614,199.998C252.763,199.668 295,157.227 295,105C295,52.773 252.763,10.332 200.614,10.002L200,10C304.864,10 390,95.136 390,200C390,304.864 304.864,390 200,390L199.386,389.998Z"
        style="fill:var(--yin);stroke:rgb(128,128,128);stroke-width:7.88px;"/>
      <circle cx="200" cy="295" r="28.589" style="fill:var(--yindot);"/>
      <path
        d="M200.614,10.002C252.763,10.332 295,52.773 295,105C295,157.227 252.763,199.668 200.614,199.998L199.386,200.002C147.237,200.332 105,242.773 105,295C105,347.227 147.237,389.668 199.386,389.998L200,390C95.136,390 10,304.864 10,200C10,95.136 95.136,10 200,10L200.614,10.002Z"
        style="fill:var(--yang);stroke:rgb(128,128,128);stroke-width:7.88px;"/>
      <circle cx="200" cy="105" r="28.589" style="fill:var(--yangdot);"/>
    </g>
    <g id="hand">
      <path
        d="M10.614,146.514C43.676,146.455 90.573,137.541 90.145,166.041C124.352,164.942 170.458,166.172 179.465,167.342C199.195,172.61 223.886,187.618 252.808,205.718C314.958,208.15 344.872,197.794 353.166,225.525C354.805,246.394 358.372,245.605 335.709,264.2C464.073,222.139 477.867,203.192 498.184,232.343C518.965,282.655 465.513,267.697 286.148,360.003C241.487,374.724 208.56,361.631 166.594,337.239C131.22,307.243 96.65,302.225 89.727,306.6C87.671,317.453 84.979,324.65 69.018,325.913C44.75,325.887 9.875,325.807 9.875,325.807C9.875,325.807 4.185,178.481 10.614,146.514Z"
        style="fill:var(--hand-fill);stroke:black;stroke-width:18.25px;"/>
      <path d="M223.489,265.465L335.709,264.2" style="fill:none;stroke:black;stroke-width:18.25px;"/>
      <path d="M90.819,167.817L90.407,307.491" style="fill:none;stroke:black;stroke-width:18.25px;"/>
      <path
        d="M49.904,175.658C44.395,175.658 39.923,180.13 39.923,185.639C39.923,191.147 44.395,195.619 49.904,195.619C55.412,195.619 59.884,191.147 59.884,185.639C59.884,180.13 55.412,175.658 49.904,175.658Z"
        style="fill-rule:nonzero;"/>
    </g>
    <g id="fist">
      <path
        d="M161.033,512.035C161.033,489.897 161.175,447.176 158.654,430.137C154.317,400.822 144.04,374.396 128.38,354.508C122.641,347.221 76.63,279.411 70.773,243.16C67.737,216.345 64.474,129.651 111.334,125.329C114.686,123.367 105.504,72.797 117.86,49.749C128.548,29.814 163.689,14.445 189.067,45.072C194.831,58.929 197.121,118.392 196.426,117.002C196.426,117.002 194.373,50.21 195.516,44.229C203.296,3.514 254.781,-4.401 275.568,33.329C277.717,37.23 280.079,66.442 280.079,66.442C280.079,66.442 283.59,31.973 283.993,31.382C311.684,-9.267 356.649,7.738 362.676,56.334C385.189,17.87 428.705,31.114 441.222,56.579C447.322,75.131 445.365,235.328 444.245,249.318C443.496,258.683 433.098,322.127 426.964,334.394C409.505,369.312 387.179,387.403 369.663,422.437C359.042,443.678 362.337,484.223 362.337,512"
        style="fill:var(--fist-fill);"/>
      <path
        d="M102.548,117.556C102.175,109.796 101.572,94.095 102.057,81.435C102.57,68.047 104.695,54.73 109.708,45.378C121.767,22.885 159.418,4.723 189.423,32.047C196.652,13.592 212.341,2.639 229.355,0.205C247.074,-2.329 266.466,4.369 279.343,22.047C295.776,0.799 316.747,-4.37 334.431,1.631C348.175,6.295 360.499,18.181 367.228,36.051C372.51,31.32 378.221,28.021 384.062,25.912C409.875,16.588 438.907,30.901 449.523,52.498C449.712,52.883 449.875,53.281 450.009,53.689C451.942,59.569 453.368,78.897 454.023,103.502C455.48,158.212 454.255,240.197 453.466,250.056C452.686,259.801 441.62,325.767 435.238,338.53C417.778,373.449 395.453,391.54 377.936,426.574C374.145,434.155 372.523,444.533 371.723,455.795C370.393,474.508 371.587,495.526 371.587,512C371.587,517.105 367.442,521.25 362.337,521.25C357.232,521.25 353.087,517.105 353.087,512C353.087,495.142 351.908,473.634 353.269,454.484C354.262,440.504 356.683,427.711 361.389,418.3C378.906,383.266 401.232,365.176 418.691,330.257C424.575,318.488 434.306,257.566 435.025,248.58C435.803,238.853 436.967,157.969 435.53,103.994C434.965,82.76 434.214,65.893 432.604,60.035C425.452,46.331 406.893,37.335 390.347,43.311C382.97,45.976 376.116,51.684 370.659,61.006C368.656,64.429 364.694,66.194 360.81,65.394C356.926,64.594 353.984,61.408 353.496,57.472C351.014,37.454 341.22,23.471 328.486,19.15C316.77,15.175 303.479,20.245 292.789,34.953C291.797,42.644 289.281,67.38 289.281,67.38C288.797,72.138 284.765,75.741 279.983,75.692C275.2,75.642 271.245,71.955 270.859,67.188C270.859,67.188 269.732,53.213 268.335,43.522C267.989,41.124 267.345,38.042 267.186,37.291C258.9,22.686 244.874,16.674 231.974,18.519C219.101,20.36 207.647,30.026 204.601,45.965C203.876,49.763 204.554,78.767 205.112,98.441C205.59,106.567 205.82,113.059 205.794,115.789C205.756,119.674 204.423,121.745 204.191,122.098C201.158,126.71 197.192,126.869 193.879,125.912C192.344,125.469 189.831,124.496 188.152,121.139C187.553,119.94 187.221,118.626 187.18,117.286C187.18,117.286 186.941,108.779 186.684,97.485C185.82,81.052 184.005,58.772 180.983,49.847C161.143,27.3 134.269,38.72 126.013,54.12C122.599,60.487 121.299,69.334 120.73,78.414C119.759,93.91 121.222,110.121 121.362,118.777C121.441,123.582 120.837,126.946 120.207,128.445C119.137,130.995 117.499,132.438 116.007,133.312C114.838,133.996 113.532,134.416 112.183,134.54C97.242,135.918 89.493,148.574 84.768,163.707C76.33,190.733 78.209,226.428 79.941,241.906C85.732,276.871 130.132,341.782 135.647,348.786C152.222,369.835 163.214,397.757 167.804,428.783C170.367,446.105 170.283,489.531 170.283,512.035C170.283,517.14 166.138,521.285 161.033,521.285C155.927,521.285 151.783,517.14 151.783,512.035C151.783,490.264 151.983,448.248 149.504,431.491C145.42,403.887 135.859,378.958 121.112,360.231C115.162,352.674 67.714,282.225 61.642,244.635C61.618,244.491 61.598,244.346 61.582,244.201C59.676,227.367 57.807,187.987 67.109,158.193C73.363,138.163 84.656,122.51 102.548,117.556Z"/>
      <path
        d="M113.96,133.321C108.964,132.27 105.761,127.361 106.812,122.365C107.863,117.369 112.772,114.166 117.768,115.217C147.199,121.406 193.787,116.52 224.12,117.211C232.789,117.409 240.259,118.059 245.908,119.361C250.255,120.363 253.737,121.832 256.31,123.572C263.193,126.674 269.636,134.058 273.352,144.125C281.414,165.961 277.355,199.905 243.472,213.717C242.883,213.957 242.27,214.136 241.644,214.25C224.72,217.345 188.296,217.043 171.092,217.043C165.987,217.043 161.842,212.898 161.842,207.793C161.842,202.688 165.987,198.543 171.092,198.543C187.165,198.543 220.852,198.983 237.361,196.219C255.776,188.239 260.153,170.934 257.776,157.217C256.985,152.646 255.47,148.458 253.408,145.177C252.007,142.947 250.494,141.082 248.6,140.393C247.632,140.042 246.73,139.531 245.931,138.882C244.614,137.813 242.342,137.43 239.541,136.947C235.164,136.193 229.779,135.845 223.698,135.707C192.398,134.993 144.33,139.708 113.96,133.321Z"/>
      <path
        d="M286.183,300.162C286.36,305.264 282.362,309.551 277.26,309.728C272.158,309.906 267.872,305.908 267.694,300.806C265.723,244.246 218.64,217.32 183.12,216.843C178.016,216.774 173.927,212.574 173.996,207.469C174.064,202.364 178.264,198.276 183.369,198.344C226.495,198.924 283.79,231.488 286.183,300.162Z"/>
      <path
        d="M349.644,160.932C349.72,160.143 350.027,156.838 350.188,153.796C351.235,134.022 351.991,87.624 353.051,60.822C353.253,55.721 357.559,51.743 362.66,51.945C367.761,52.147 371.739,56.452 371.537,61.553C370.474,88.426 369.712,134.947 368.662,154.774C368.327,161.103 367.717,165.275 367.324,166.419C362.344,180.913 353.876,190.311 344.155,195.819C329.513,204.116 311.684,203.554 297.15,196.957C280.36,189.336 268.35,173.863 269.286,155.917C269.8,146.067 270.21,74.613 270.573,65.805C270.783,60.704 275.095,56.733 280.196,56.944C285.296,57.154 289.267,61.465 289.057,66.566C288.693,75.394 288.276,147.009 287.761,156.88C287.217,167.303 295.046,175.685 304.796,180.111C314.144,184.354 325.617,185.06 335.034,179.724C341.234,176.21 346.395,170.064 349.644,160.932Z"/>
      <path
        d="M351.575,155.566C350.073,150.687 352.814,145.506 357.694,144.004C362.573,142.502 367.754,145.244 369.256,150.123C374.042,165.672 388.874,172.485 403.262,171.724C417.848,170.952 432.385,162.41 436.287,146.13C437.477,141.165 442.474,138.101 447.439,139.291C452.403,140.481 455.468,145.477 454.278,150.442C448.309,175.343 426.551,189.017 404.24,190.198C381.729,191.389 359.064,179.893 351.575,155.566Z"/>
    </g>
    <g id="dislike">
      <path
        d="M464.062,171.329C469.917,173.773 475.298,177.364 479.921,181.988C489.231,191.298 494.358,203.676 494.358,216.842C494.358,230.003 489.231,242.382 479.921,251.691C475.434,256.175 470.202,259.711 464.471,262.159C474.943,271.204 481.578,284.573 481.578,299.458C481.578,312.627 476.448,325.005 467.145,334.296C457.839,343.614 445.461,348.744 432.315,348.744L377.278,348.861L377.262,348.861C373.075,348.861 369.679,345.477 369.672,341.29C369.664,337.099 373.052,333.695 377.243,333.684L432.296,333.567C441.403,333.567 449.964,330.015 456.409,323.563C462.849,317.134 466.397,308.573 466.397,299.458C466.397,280.662 451.11,265.368 432.323,265.36C428.132,265.356 424.736,261.96 424.74,257.769C424.74,253.578 428.136,250.179 432.327,250.179L452.276,250.179C458.682,248.806 464.518,245.629 469.184,240.959C475.629,234.518 479.177,225.953 479.177,216.842C479.177,207.727 475.629,199.161 469.184,192.721C462.744,186.276 454.179,182.728 445.067,182.728L432.522,182.728C428.327,182.728 424.931,179.333 424.931,175.142C424.931,170.951 428.327,167.551 432.522,167.551C441.621,167.551 450.19,164.007 456.639,157.571C463.083,151.13 466.631,142.565 466.631,133.454C466.631,124.342 463.083,115.773 456.639,109.333C450.198,102.888 441.633,99.344 432.522,99.344C432.405,99.344 432.288,99.34 432.175,99.333L415.145,98.557C411.025,98.366 407.808,94.923 407.906,90.799C407.999,86.678 411.368,83.383 415.492,83.383C434.299,83.383 449.602,68.089 449.602,49.286C449.602,40.175 446.05,31.605 439.617,25.161C433.157,18.72 424.592,15.177 415.492,15.177L313.757,15.177C268.596,15.177 222.634,29.765 187.664,55.208C160.206,75.184 127.473,110.779 127.473,166.923L127.473,291.313C126.12,344.44 162.666,378.76 184.572,394.491C199.313,405.083 211.987,417.142 222.249,430.331C226.783,436.163 230.685,441.719 233.851,446.838C238.428,454.238 241.601,460.955 243.282,466.807C246.221,477.076 252.985,485.586 262.327,490.772C271.675,495.957 282.479,497.193 292.755,494.249C303.036,491.306 311.555,484.534 316.74,475.189C321.925,465.848 323.161,455.041 320.214,444.764C314.463,424.69 298.479,374.916 274.295,346.386C272.385,344.136 271.956,340.982 273.192,338.3C274.428,335.617 277.106,333.898 280.058,333.89L378.941,333.684L378.964,333.684C383.143,333.684 386.539,337.068 386.551,341.251C386.562,345.442 383.174,348.849 378.983,348.861L295.204,349.021C306.447,365.723 321.574,394.397 334.802,440.584C338.865,454.76 337.165,469.664 330.011,482.553C322.861,495.442 311.114,504.779 296.935,508.842C282.763,512.9 267.859,511.193 254.966,504.043C242.073,496.893 232.74,485.15 228.693,470.986C227.399,466.479 224.79,461.041 220.939,454.822C218.057,450.156 214.467,445.048 210.264,439.645C200.9,427.606 189.274,416.561 175.714,406.818C157.82,393.968 131.137,369.863 118.868,334.113L25.55,334.113C21.359,334.113 17.964,330.713 17.964,326.522L17.964,134.915C17.964,130.724 21.359,127.325 25.55,127.325C29.741,127.325 33.141,130.724 33.141,134.915L33.141,318.935L114.736,318.935C112.958,310.222 112.053,300.92 112.299,291.025L112.299,166.923C112.299,141.278 118.58,117.188 130.97,95.329C135.905,86.619 141.757,78.346 148.482,70.557L33.141,70.557L33.141,134.494C33.141,138.686 29.741,142.081 25.55,142.081C21.359,142.081 17.964,138.686 17.964,134.494L17.964,62.966C17.964,58.775 21.359,55.375 25.55,55.375L163.383,55.375C168.19,51.04 173.305,46.888 178.736,42.935C216.245,15.648 265.461,-0.001 313.761,-0.001L415.492,-0.001C428.639,-0.001 441.017,5.118 450.35,14.428C459.656,23.746 464.783,36.128 464.783,49.286C464.783,64.151 458.167,77.496 447.722,86.541C455.052,88.908 461.773,92.997 467.375,98.6C476.685,107.91 481.812,120.288 481.812,133.454C481.812,146.619 476.685,158.994 467.368,168.311C466.303,169.372 465.2,170.378 464.062,171.329Z"
        style="fill-rule:nonzero;"/>
    </g>
    <g id="like">
      <path
        d="M464.062,339.669C469.917,337.225 475.298,333.634 479.921,329.01C489.231,319.7 494.358,307.322 494.358,294.156C494.358,280.994 489.231,268.616 479.921,259.306C475.434,254.823 470.202,251.287 464.471,248.838C474.943,239.794 481.578,226.425 481.578,211.54C481.578,198.371 476.448,185.992 467.145,176.702C457.839,167.384 445.461,162.254 432.315,162.254L377.278,162.137L377.262,162.137C373.075,162.137 369.679,165.521 369.672,169.708C369.664,173.899 373.052,177.302 377.243,177.314L432.296,177.431C441.403,177.431 449.964,180.983 456.409,187.435C462.849,193.864 466.397,202.425 466.397,211.54C466.397,230.336 451.11,245.63 432.323,245.638C428.132,245.642 424.736,249.037 424.74,253.228C424.74,257.419 428.136,260.819 432.327,260.819L452.276,260.819C458.682,262.191 464.518,265.369 469.184,270.039C475.629,276.48 479.177,285.045 479.177,294.156C479.177,303.271 475.629,311.837 469.184,318.277C462.744,324.722 454.179,328.269 445.067,328.269L432.522,328.269C428.327,328.269 424.931,331.665 424.931,335.856C424.931,340.047 428.327,343.447 432.522,343.447C441.621,343.447 450.19,346.991 456.639,353.427C463.083,359.868 466.631,368.433 466.631,377.544C466.631,386.655 463.083,395.225 456.639,401.665C450.198,408.11 441.633,411.653 432.522,411.653C432.405,411.653 432.288,411.657 432.175,411.665L415.145,412.441C411.025,412.632 407.808,416.075 407.906,420.199C407.999,424.32 411.368,427.615 415.492,427.615C434.299,427.615 449.602,442.909 449.602,461.712C449.602,470.823 446.05,479.392 439.617,485.837C433.157,492.277 424.592,495.821 415.492,495.821L313.757,495.821C268.596,495.821 222.634,481.232 187.664,455.79C160.206,435.813 127.473,400.219 127.473,344.074L127.473,219.684C126.12,166.558 162.666,132.238 184.572,116.507C199.313,105.914 211.987,93.856 222.249,80.667C226.783,74.834 230.685,69.279 233.851,64.16C238.428,56.76 241.601,50.043 243.282,44.191C246.221,33.922 252.985,25.411 262.327,20.226C271.675,15.041 282.479,13.805 292.755,16.749C303.036,19.692 311.555,26.464 316.74,35.809C321.925,45.15 323.161,55.957 320.214,66.234C314.463,86.308 298.479,136.082 274.295,164.612C272.385,166.862 271.956,170.016 273.192,172.698C274.428,175.38 277.106,177.1 280.058,177.107L378.941,177.314L378.964,177.314C383.143,177.314 386.539,173.93 386.551,169.747C386.562,165.556 383.174,162.148 378.983,162.137L295.204,161.977C306.447,145.275 321.574,116.601 334.802,70.413C338.865,56.238 337.165,41.333 330.011,28.444C322.861,15.556 311.114,6.218 296.935,2.156C282.763,-1.903 267.859,-0.195 254.966,6.955C242.073,14.105 232.74,25.848 228.693,40.012C227.399,44.519 224.79,49.957 220.939,56.175C218.057,60.842 214.467,65.949 210.264,71.353C200.9,83.392 189.274,94.437 175.714,104.179C157.82,117.029 131.137,141.135 118.868,176.885L25.55,176.885C21.359,176.885 17.964,180.285 17.964,184.476L17.964,376.083C17.964,380.274 21.359,383.673 25.55,383.673C29.741,383.673 33.141,380.274 33.141,376.083L33.141,192.063L114.736,192.063C112.958,200.776 112.053,210.078 112.299,219.973L112.299,344.074C112.299,369.72 118.58,393.809 130.97,415.669C135.905,424.379 141.757,432.652 148.482,440.441L33.141,440.441L33.141,376.503C33.141,372.312 29.741,368.917 25.55,368.917C21.359,368.917 17.964,372.312 17.964,376.503L17.964,448.032C17.964,452.223 21.359,455.622 25.55,455.622L163.383,455.622C168.19,459.958 173.305,464.11 178.736,468.063C216.245,495.349 265.461,510.999 313.761,510.999L415.492,510.999C428.639,510.999 441.017,505.88 450.35,496.57C459.656,487.252 464.783,474.87 464.783,461.712C464.783,446.846 458.167,433.501 447.722,424.457C455.052,422.09 461.773,418 467.375,412.398C476.685,403.088 481.812,390.71 481.812,377.544C481.812,364.379 476.685,352.004 467.368,342.687C466.303,341.626 465.2,340.62 464.062,339.669Z"
        style="fill-rule:nonzero;"/>
    </g>
  </defs>
</svg>
